<?xml version="1.0" encoding="utf-8"?>
<!-- Generator: Adobe Illustrator 23.0.1, SVG Export Plug-In . SVG Version: 6.00 Build 0)  -->
<svg version="1.1" id="Layer_1" xmlns="http://www.w3.org/2000/svg" xmlns:xlink="http://www.w3.org/1999/xlink" x="0px" y="0px"
	 viewBox="0 0 304.4 442.4" style="enable-background:new 0 0 304.4 442.4;" xml:space="preserve">
<style type="text/css">
	.st0{opacity:0.3;enable-background:new    ;}
	.st1{fill:#485968;}
	.st2{clip-path:url(#SVGID_2_);}
	
		.st3{opacity:0.25;fill:none;stroke:#FFFFFF;stroke-width:0.5;stroke-miterlimit:10;stroke-dasharray:1.8524,1.8524;enable-background:new    ;}
	.st4{clip-path:url(#SVGID_4_);}
	.st5{opacity:0.95;fill:#FFFFFF;enable-background:new    ;}
	.st6{clip-path:url(#SVGID_6_);}
	.st7{clip-path:url(#SVGID_8_);}
</style>
<path class="st0" d="M52.4,38.7c0,0-2.7-18.5,0-20.7c0,0,0.3-0.3,9.5-4.6c6-2.8,25.2,4.2,28.5,4.6c8.7,1.1,41.3-1.1,44-2.7
	s9.8-2.7,9.8,0s-0.5,18.5,0,23.4s5.4,122.3,0,148.9s9.2,57.6,9.2,57.6s85.7,118.1,76.9,166c0,0-10.1,8.2-19.3,11.7
	c-58.2,21.7-106.5-75.5-106.5-75.5s-24.5-52.2-31-57.6s-33.7-19.6-22.3-65.2S52.4,38.7,52.4,38.7L52.4,38.7z"/>
<path class="st1" d="M62.2,33.8c0,0-2.7-18.5,0-20.7c0,0,29.3-1.1,38,0s41.3-1.1,44-2.7s9.8-2.7,9.8,0s-0.5,18.5,0,23.4
	s5.4,122.3,0,148.9s9.2,57.6,9.2,57.6S279,396.3,220.8,418s-106.5-75.5-106.5-75.5s-24.5-52.2-31-57.6S49.6,265.3,61,219.7
	S62.2,33.8,62.2,33.8z"/>
<g>
	<g>
		<defs>
			<path id="SVGID_1_" d="M62.2,33.8c0,0-2.7-18.5,0-20.7c0,0,29.3-1.1,38,0s41.3-1.1,44-2.7s9.8-2.7,9.8,0s-0.5,18.5,0,23.4
				s5.4,122.3,0,148.9s9.2,57.6,9.2,57.6S279,396.3,220.8,418s-106.5-75.5-106.5-75.5s-24.5-52.2-31-57.6S49.6,265.3,61,219.7
				S62.2,33.8,62.2,33.8z"/>
		</defs>
		<clipPath id="SVGID_2_">
			<use xlink:href="#SVGID_1_"  style="overflow:visible;"/>
		</clipPath>
		<g class="st2">
			<path id="tl1" class="st3" d="M8.4,15.2l251,0.2"/>
			<g>
				<path class="st3" d="M8.4,22.2l251,0.2"/>
			</g>
			<g>
				<path class="st3" d="M8.4,27.2l251,0.2"/>
			</g>
			<g>
				<path class="st3" d="M8.4,32.2l251,0.2"/>
			</g>
			<g>
				<path class="st3" d="M8.4,37.2l251,0.2"/>
			</g>
			<g>
				<path class="st3" d="M8.4,42.2l251,0.2"/>
			</g>
			<g>
				<path class="st3" d="M8.4,47.2l251,0.2"/>
			</g>
			<g>
				<path class="st3" d="M8.4,52.2l251,0.2"/>
			</g>
			<g>
				<path class="st3" d="M8.4,57.2l251,0.2"/>
			</g>
			<g>
				<path class="st3" d="M8.4,62.2l251,0.2"/>
			</g>
			<g>
				<path class="st3" d="M8.4,67.2l251,0.2"/>
			</g>
			<g>
				<path class="st3" d="M8.4,72.2l251,0.2"/>
			</g>
			<g>
				<path class="st3" d="M8.4,77.2l251,0.2"/>
			</g>
			<g>
				<path class="st3" d="M8.4,82.2l251,0.2"/>
			</g>
			<g>
				<path class="st3" d="M8.4,87.2l251,0.2"/>
			</g>
			<g>
				<path class="st3" d="M8.4,92.2l251,0.2"/>
			</g>
			<g>
				<path class="st3" d="M8.4,97.2l251,0.2"/>
			</g>
			<g>
				<path class="st3" d="M8.4,102.2l251,0.2"/>
			</g>
			<g>
				<path class="st3" d="M8.4,107.2l251,0.2"/>
			</g>
			<g>
				<path class="st3" d="M8.4,112.2l251,0.2"/>
			</g>
			<g>
				<path class="st3" d="M8.4,117.2l251,0.2"/>
			</g>
			<g>
				<path class="st3" d="M8.4,122.2l251,0.2"/>
			</g>
			<g>
				<path class="st3" d="M8.4,127.2l251,0.2"/>
			</g>
			<g>
				<path class="st3" d="M8.4,132.2l251,0.2"/>
			</g>
			<g>
				<path class="st3" d="M8.4,137.2l251,0.2"/>
			</g>
			<g>
				<path class="st3" d="M8.4,142.2l251,0.2"/>
			</g>
			<g>
				<path class="st3" d="M8.4,147.2l251,0.2"/>
			</g>
			<g>
				<path class="st3" d="M8.4,152.2l251,0.2"/>
			</g>
			<g>
				<path class="st3" d="M8.4,157.2l251,0.2"/>
			</g>
			<g>
				<path class="st3" d="M8.4,162.2l251,0.2"/>
			</g>
			<g>
				<path class="st3" d="M8.4,167.2l251,0.2"/>
			</g>
			<g>
				<path class="st3" d="M8.4,172.2l251,0.2"/>
			</g>
			<g>
				<path class="st3" d="M8.4,177.2l251,0.2"/>
			</g>
			<g>
				<path class="st3" d="M8.4,182.2l251,0.2"/>
			</g>
			<g>
				<path class="st3" d="M8.4,187.2l251,0.2"/>
			</g>
			<g>
				<path class="st3" d="M8.4,192.2l251,0.2"/>
			</g>
			<g>
				<path class="st3" d="M8.4,197.2l251,0.2"/>
			</g>
			<g>
				<path class="st3" d="M8.4,202.2l251,0.2"/>
			</g>
			<g>
				<path class="st3" d="M8.4,207.2l251,0.2"/>
			</g>
			<g>
				<path class="st3" d="M8.4,212.2l251,0.2"/>
			</g>
			<g>
				<path class="st3" d="M8.4,217.2l251,0.2"/>
			</g>
			<g>
				<path class="st3" d="M8.4,222.2l251,0.2"/>
			</g>
			<g>
				<path class="st3" d="M8.4,227.2l251,0.2"/>
			</g>
			<g>
				<path class="st3" d="M8.4,232.2l251,0.2"/>
			</g>
			<g>
				<path class="st3" d="M8.4,237.2l251,0.2"/>
			</g>
			<g>
				<path class="st3" d="M8.4,242.2l251,0.2"/>
			</g>
			<g>
				<path class="st3" d="M8.4,247.2l251,0.2"/>
			</g>
			<g>
				<path class="st3" d="M8.4,252.2l251,0.2"/>
			</g>
			<g>
				<path class="st3" d="M8.4,257.2l251,0.2"/>
			</g>
			<g>
				<path class="st3" d="M8.4,262.2l251,0.2"/>
			</g>
			<g>
				<path class="st3" d="M8.4,267.2l251,0.2"/>
			</g>
			<g>
				<path class="st3" d="M8.4,272.2l251,0.2"/>
			</g>
			<g>
				<path class="st3" d="M8.4,277.2l251,0.2"/>
			</g>
			<g>
				<path class="st3" d="M8.4,282.2l251,0.2"/>
			</g>
			<g>
				<path class="st3" d="M8.4,287.2l251,0.2"/>
			</g>
			<g>
				<path class="st3" d="M8.4,292.2l251,0.2"/>
			</g>
			<g>
				<path class="st3" d="M8.4,297.2l251,0.2"/>
			</g>
			<g>
				<path class="st3" d="M8.4,302.2l251,0.2"/>
			</g>
			<g>
				<path class="st3" d="M8.4,307.2l251,0.2"/>
			</g>
			<g>
				<path class="st3" d="M8.4,312.2l251,0.2"/>
			</g>
			<g>
				<path class="st3" d="M8.4,317.2l251,0.2"/>
			</g>
			<g>
				<path class="st3" d="M8.4,322.2l251,0.2"/>
			</g>
			<g>
				<path class="st3" d="M8.4,327.2l251,0.2"/>
			</g>
			<g>
				<path class="st3" d="M8.4,332.2l251,0.2"/>
			</g>
			<g>
				<path class="st3" d="M8.4,337.2l251,0.2"/>
			</g>
			<g>
				<path class="st3" d="M8.4,342.2l251,0.2"/>
			</g>
			<g>
				<path class="st3" d="M8.4,347.2l251,0.2"/>
			</g>
			<g>
				<path class="st3" d="M8.4,352.2l251,0.2"/>
			</g>
			<g>
				<path class="st3" d="M8.4,357.2l251,0.2"/>
			</g>
			<g>
				<path class="st3" d="M8.4,362.2l251,0.2"/>
			</g>
			<g>
				<path class="st3" d="M8.4,367.2l251,0.2"/>
			</g>
			<g>
				<path class="st3" d="M8.4,372.2l251,0.2"/>
			</g>
			<g>
				<path class="st3" d="M8.4,377.2l251,0.2"/>
			</g>
			<g>
				<path class="st3" d="M8.4,382.2l251,0.2"/>
			</g>
			<g>
				<path class="st3" d="M8.4,387.2l251,0.2"/>
			</g>
			<g>
				<path class="st3" d="M8.4,392.2l251,0.2"/>
			</g>
			<g>
				<path class="st3" d="M8.4,397.2l251,0.2"/>
			</g>
			<g>
				<path class="st3" d="M8.4,402.2l251,0.2"/>
			</g>
			<g>
				<path class="st3" d="M8.4,407.2l251,0.2"/>
			</g>
			<g>
				<path class="st3" d="M8.4,412.2l251,0.2"/>
			</g>
			<g>
				<path class="st3" d="M8.4,417.2l251,0.2"/>
			</g>
			<g>
				<path class="st3" d="M8.4,422.2l251,0.2"/>
			</g>
			<g>
				<path class="st3" d="M8.4,427.2l251,0.2"/>
			</g>
			<g>
				<path class="st3" d="M8.4,432.2l251,0.2"/>
			</g>
		</g>
	</g>
</g>
<g>
	<g>
		<defs>
			<path id="SVGID_3_" d="M62.2,33.8c0,0-2.7-18.5,0-20.7c0,0,29.3-1.1,38,0s41.3-1.1,44-2.7s9.8-2.7,9.8,0s-0.5,18.5,0,23.4
				s5.4,122.3,0,148.9s9.2,57.6,9.2,57.6S279,396.3,220.8,418s-106.5-75.5-106.5-75.5s-24.5-52.2-31-57.6S49.6,265.3,61,219.7
				S62.2,33.8,62.2,33.8z"/>
		</defs>
		<clipPath id="SVGID_4_">
			<use xlink:href="#SVGID_3_"  style="overflow:visible;"/>
		</clipPath>
		<g class="st4">
			<path class="st5" d="M91,63.1c-2.6-1.5-4.5-3.8-5.5-6.6c0.2-1.1,0.7-2.1,1.5-2.9c1.4-1.6,17.6-19.2,24.5-22.2
				c-1.8-0.3-3.6-0.5-5.4-0.5c-20.3,0-22.2,14.5-22.2,14.5s-12.3,3.8-12.3,15c0,16.1,19.8,16.9,19.8,16.9c2.1,0.1,4.2,0,6.3-0.2
				c1.1-0.2,2.1-1,2.6-2.1c1.2-2.9,2.9-7.5,4.6-12.3C98.1,63,91.7,63.3,91,63.1L91,63.1z M141,57c0-14.2-13.9-15.8-13.9-15.8
				c-1.5-2.6-3.6-4.8-6.2-6.4c-1.2,4.4-4.5,16.3-4.6,18.5h4.9c0,0,0.8,0,0.6,1c-0.5,2.2-1.7,7.5-4.3,7.7l-3.4,0.2c-1,3.9-2,8-2.7,11
				c2.5,1.8,5.6,2.8,8.7,2.6c3.6,0.2,7.1-1.1,9.7-3.6C141.4,70.2,141,57,141,57z"/>
			<path class="st5" d="M111.7,39.2c-5.2,4.5-10.1,9.5-14.5,14.9l10.5-0.4c2.1-6,4-11.4,4.8-13.7C112.5,39.5,112.1,39.2,111.7,39.2z
				 M55.2,133.8c-2.6-1.5-4.5-3.8-5.5-6.6c0.2-1.1,0.7-2.1,1.5-2.9c1.4-1.6,17.6-19.2,24.5-22.2c-1.8-0.3-3.6-0.5-5.4-0.5
				c-20.3,0-22.2,14.5-22.2,14.5s-12.3,3.8-12.3,15c0,16.1,19.8,16.9,19.8,16.9c2.1,0.1,4.2,0,6.3-0.2c1.1-0.2,2.1-1,2.6-2.1
				c1.2-2.9,2.9-7.5,4.6-12.3C62.3,133.6,55.9,133.9,55.2,133.8L55.2,133.8z M105.2,127.7c0-14.2-13.9-15.8-13.9-15.8
				c-1.5-2.6-3.6-4.8-6.2-6.4c-1.2,4.4-4.5,16.3-4.6,18.5h4.9c0,0,0.8,0,0.6,1c-0.5,2.2-1.7,7.5-4.3,7.7l-3.4,0.2c-1,3.9-2,8-2.7,11
				c2.5,1.8,5.6,2.8,8.7,2.6c3.6,0.2,7.1-1.1,9.7-3.6C105.6,140.9,105.2,127.7,105.2,127.7L105.2,127.7z"/>
			<path class="st5" d="M75.8,109.9c-5.2,4.5-10.1,9.5-14.5,14.9l10.5-0.4c2.1-6,4-11.4,4.8-13.7C76.6,110.2,76.3,109.9,75.8,109.9z
				 M150.8,103.4c-2.6-1.5-4.5-3.8-5.5-6.6c0.2-1.1,0.7-2.1,1.5-2.9c1.4-1.6,17.6-19.2,24.5-22.2c-1.8-0.3-3.6-0.5-5.4-0.5
				c-20.3,0-22.2,14.5-22.2,14.5s-12.3,3.8-12.3,15c0,16.1,19.8,16.9,19.8,16.9c2.1,0.1,4.2,0,6.3-0.2c1.1-0.2,2.1-1,2.6-2.1
				c1.2-2.9,2.9-7.5,4.6-12.3C157.9,103.2,151.5,103.5,150.8,103.4L150.8,103.4z M200.8,97.2c0-14.2-13.9-15.8-13.9-15.8
				c-1.5-2.6-3.6-4.8-6.2-6.4c-1.2,4.4-4.5,16.3-4.6,18.5h4.9c0,0,0.8,0,0.6,1c-0.5,2.2-1.7,7.5-4.3,7.7l-3.4,0.2c-1,3.9-2,8-2.7,11
				c2.5,1.8,5.6,2.8,8.7,2.6c3.6,0.2,7.1-1.1,9.7-3.6C201.2,110.4,200.8,97.2,200.8,97.2L200.8,97.2z"/>
			<path class="st5" d="M171.5,79.4c-5.2,4.5-10.1,9.5-14.5,14.9l10.5-0.4c2.1-6,4-11.4,4.8-13.7C172.3,79.8,171.9,79.4,171.5,79.4z
				 M116.6,179.5c-2.6-1.5-4.5-3.8-5.5-6.6c0.2-1.1,0.7-2.1,1.5-2.9c1.4-1.6,17.6-19.2,24.5-22.2c-1.8-0.3-3.6-0.5-5.4-0.5
				c-20.3,0-22.2,14.5-22.2,14.5s-12.3,3.8-12.3,15c0,16.1,19.8,16.9,19.8,16.9c2.1,0.1,4.2,0,6.3-0.2c1.1-0.2,2.1-1,2.6-2.1
				c1.2-2.9,2.9-7.5,4.6-12.3C123.7,179.3,117.3,179.6,116.6,179.5L116.6,179.5z M166.6,173.3c0-14.2-13.9-15.8-13.9-15.8
				c-1.5-2.6-3.6-4.8-6.2-6.4c-1.2,4.4-4.5,16.3-4.6,18.5h4.9c0,0,0.8,0,0.6,1c-0.5,2.2-1.7,7.5-4.3,7.7l-3.4,0.2c-1,3.9-2,8-2.7,11
				c2.5,1.8,5.6,2.8,8.7,2.6c3.6,0.2,7.1-1.1,9.7-3.6C167,186.5,166.6,173.3,166.6,173.3z"/>
			<path class="st5" d="M137.3,155.5c-5.2,4.5-10.1,9.5-14.5,14.9l10.5-0.4c2.1-6,4-11.4,4.8-13.7
				C138,155.9,137.7,155.5,137.3,155.5z M45.9,231.1c-2.6-1.5-4.5-3.8-5.5-6.6c0.2-1.1,0.7-2.1,1.5-2.9c1.4-1.6,17.6-19.2,24.5-22.2
				c-1.8-0.3-3.6-0.5-5.4-0.5c-20.3,0-22.2,14.5-22.2,14.5s-12.3,3.8-12.3,15c0,16.1,19.8,16.9,19.8,16.9c2.1,0.1,4.2,0,6.3-0.2
				c1.1-0.2,2.1-1,2.6-2.1c1.2-2.9,2.9-7.5,4.6-12.3C53,230.9,46.6,231.2,45.9,231.1L45.9,231.1z M95.9,224.9
				c0-14.2-13.9-15.8-13.9-15.8c-1.5-2.6-3.6-4.8-6.2-6.4c-1.2,4.4-4.5,16.3-4.6,18.5h4.9c0,0,0.8,0,0.6,1c-0.5,2.2-1.7,7.5-4.3,7.7
				l-3.4,0.2c-1,3.9-2,8-2.7,11c2.5,1.8,5.6,2.8,8.7,2.6c3.6,0.2,7.1-1.1,9.7-3.6C96.3,238.2,95.9,224.9,95.9,224.9z"/>
			<path class="st5" d="M66.6,207.1c-5.2,4.5-10.1,9.5-14.5,14.9l10.5-0.4c2.1-6,4-11.4,4.8-13.7C67.4,207.5,67,207.2,66.6,207.1z
				 M131.2,255.5c-2.6-1.5-4.5-3.8-5.5-6.6c0.2-1.1,0.7-2.1,1.5-2.9c1.4-1.6,17.6-19.2,24.5-22.2c-1.8-0.3-3.6-0.5-5.4-0.5
				c-20.3,0-22.2,14.5-22.2,14.5s-12.3,3.8-12.3,15c0,16.1,19.8,16.9,19.8,16.9c2.1,0.1,4.2,0,6.3-0.2c1.1-0.2,2.1-1,2.6-2.1
				c1.2-2.9,2.9-7.5,4.6-12.3C138.3,255.4,132,255.7,131.2,255.5L131.2,255.5z M181.2,249.4c0-14.2-13.9-15.8-13.9-15.8
				c-1.5-2.6-3.6-4.8-6.2-6.4c-1.2,4.4-4.5,16.3-4.6,18.5h4.9c0,0,0.8,0,0.6,1c-0.5,2.2-1.7,7.5-4.3,7.7l-3.4,0.2c-1,3.9-2,8-2.7,11
				c2.5,1.8,5.6,2.8,8.7,2.6c3.6,0.2,7.1-1.1,9.7-3.6C181.7,262.6,181.2,249.4,181.2,249.4L181.2,249.4z"/>
			<path class="st5" d="M151.9,231.6c-5.2,4.5-10.1,9.5-14.5,14.9l10.5-0.4c2.1-6,4-11.4,4.8-13.7
				C152.7,231.9,152.4,231.6,151.9,231.6z M116,326.2c-2.6-1.5-4.5-3.8-5.5-6.6c0.2-1.1,0.7-2.1,1.5-2.9
				c1.4-1.6,17.6-19.2,24.5-22.2c-1.8-0.3-3.6-0.5-5.4-0.5c-20.3,0-22.2,14.5-22.2,14.5s-12.3,3.8-12.3,15
				c0,16.1,19.8,16.9,19.8,16.9c2.1,0.1,4.2,0,6.3-0.2c1.1-0.2,2.1-1,2.6-2.1c1.2-2.9,2.9-7.5,4.6-12.3
				C123.1,326,116.7,326.3,116,326.2L116,326.2z M166,320.1c0-14.2-13.9-15.8-13.9-15.8c-1.5-2.6-3.6-4.8-6.2-6.4
				c-1.2,4.4-4.5,16.3-4.6,18.5h4.9c0,0,0.8,0,0.6,1c-0.5,2.2-1.7,7.5-4.3,7.7l-3.4,0.2c-1,3.9-2,8-2.7,11c2.5,1.8,5.6,2.8,8.7,2.6
				c3.6,0.2,7.1-1.1,9.7-3.6C166.4,333.3,166,320.1,166,320.1L166,320.1z"/>
			<path class="st5" d="M136.7,302.3c-5.2,4.5-10.1,9.5-14.5,14.9l10.5-0.4c2.1-6,4-11.4,4.8-13.7
				C137.5,302.6,137.1,302.3,136.7,302.3z M185.6,372.4c-2.6-1.5-4.5-3.8-5.5-6.6c0.2-1.1,0.7-2.1,1.5-2.9
				c1.4-1.6,17.6-19.2,24.5-22.2c-1.8-0.3-3.6-0.5-5.4-0.5c-20.3,0-22.2,14.5-22.2,14.5s-12.3,3.8-12.3,15
				c0,16.1,19.8,16.9,19.8,16.9c2.1,0.1,4.2,0,6.3-0.2c1.1-0.2,2.1-1,2.6-2.1c1.2-2.9,2.9-7.5,4.6-12.3
				C192.7,372.2,186.3,372.5,185.6,372.4L185.6,372.4z M235.6,366.3c0-14.2-13.9-15.8-13.9-15.8c-1.5-2.6-3.6-4.8-6.2-6.4
				c-1.2,4.4-4.5,16.3-4.6,18.5h4.9c0,0,0.8,0,0.6,1c-0.5,2.2-1.7,7.5-4.3,7.7l-3.4,0.2c-1,3.9-2,8-2.7,11c2.5,1.8,5.6,2.8,8.7,2.6
				c3.6,0.2,7.1-1.1,9.7-3.6C236,379.5,235.6,366.3,235.6,366.3L235.6,366.3z"/>
			<path class="st5" d="M206.3,348.5c-5.2,4.5-10.1,9.5-14.5,14.9l10.5-0.4c2.1-6,4-11.4,4.8-13.7
				C207,348.8,206.7,348.5,206.3,348.5z"/>
		</g>
	</g>
</g>
<path class="st0" d="M97.4,40.7c0,0-2.7-18.5,0-20.7c0,0,0.3-0.3,9.5-4.6c6-2.8,25.2,4.2,28.5,4.6c8.7,1.1,41.3-1.1,44-2.7
	s9.8-2.7,9.8,0s-0.5,18.5,0,23.4s5.4,122.3,0,148.9s9.2,57.6,9.2,57.6s85.7,118.1,76.9,166c0,0-10.1,8.2-19.3,11.7
	c-58.2,21.7-106.5-75.5-106.5-75.5s-24.5-52.2-31-57.6s-33.7-19.6-22.3-65.2S97.4,40.7,97.4,40.7L97.4,40.7z"/>
<path class="st1" d="M107.2,35.8c0,0-2.7-18.5,0-20.7c0,0,29.3-1.1,38,0s41.3-1.1,44-2.7s9.8-2.7,9.8,0s-0.5,18.5,0,23.4
	s5.4,122.3,0,148.9s9.2,57.6,9.2,57.6S324,398.3,265.8,420s-106.5-75.5-106.5-75.5s-24.5-52.2-31-57.6s-33.7-19.6-22.3-65.2
	S107.2,35.8,107.2,35.8z"/>
<g>
	<g>
		<defs>
			<path id="SVGID_5_" d="M107.2,35.8c0,0-2.7-18.5,0-20.7c0,0,29.3-1.1,38,0s41.3-1.1,44-2.7s9.8-2.7,9.8,0s-0.5,18.5,0,23.4
				s5.4,122.3,0,148.9s9.2,57.6,9.2,57.6S324,398.3,265.8,420s-106.5-75.5-106.5-75.5s-24.5-52.2-31-57.6s-33.7-19.6-22.3-65.2
				S107.2,35.8,107.2,35.8z"/>
		</defs>
		<clipPath id="SVGID_6_">
			<use xlink:href="#SVGID_5_"  style="overflow:visible;"/>
		</clipPath>
		<g class="st6">
			<path class="st3" d="M53.4,17.2l251,0.2"/>
			<g>
				<path class="st3" d="M53.4,24.2l251,0.2"/>
			</g>
			<g>
				<path class="st3" d="M53.4,29.2l251,0.2"/>
			</g>
			<g>
				<path class="st3" d="M53.4,34.2l251,0.2"/>
			</g>
			<g>
				<path class="st3" d="M53.4,39.2l251,0.2"/>
			</g>
			<g>
				<path class="st3" d="M53.4,44.2l251,0.2"/>
			</g>
			<g>
				<path class="st3" d="M53.4,49.2l251,0.2"/>
			</g>
			<g>
				<path class="st3" d="M53.4,54.2l251,0.2"/>
			</g>
			<g>
				<path class="st3" d="M53.4,59.2l251,0.2"/>
			</g>
			<g>
				<path class="st3" d="M53.4,64.2l251,0.2"/>
			</g>
			<g>
				<path class="st3" d="M53.4,69.2l251,0.2"/>
			</g>
			<g>
				<path class="st3" d="M53.4,74.2l251,0.2"/>
			</g>
			<g>
				<path class="st3" d="M53.4,79.2l251,0.2"/>
			</g>
			<g>
				<path class="st3" d="M53.4,84.2l251,0.2"/>
			</g>
			<g>
				<path class="st3" d="M53.4,89.2l251,0.2"/>
			</g>
			<g>
				<path class="st3" d="M53.4,94.2l251,0.2"/>
			</g>
			<g>
				<path class="st3" d="M53.4,99.2l251,0.2"/>
			</g>
			<g>
				<path class="st3" d="M53.4,104.2l251,0.2"/>
			</g>
			<g>
				<path class="st3" d="M53.4,109.2l251,0.2"/>
			</g>
			<g>
				<path class="st3" d="M53.4,114.2l251,0.2"/>
			</g>
			<g>
				<path class="st3" d="M53.4,119.2l251,0.2"/>
			</g>
			<g>
				<path class="st3" d="M53.4,124.2l251,0.2"/>
			</g>
			<g>
				<path class="st3" d="M53.4,129.2l251,0.2"/>
			</g>
			<g>
				<path class="st3" d="M53.4,134.2l251,0.2"/>
			</g>
			<g>
				<path class="st3" d="M53.4,139.2l251,0.2"/>
			</g>
			<g>
				<path class="st3" d="M53.4,144.2l251,0.2"/>
			</g>
			<g>
				<path class="st3" d="M53.4,149.2l251,0.2"/>
			</g>
			<g>
				<path class="st3" d="M53.4,154.2l251,0.2"/>
			</g>
			<g>
				<path class="st3" d="M53.4,159.2l251,0.2"/>
			</g>
			<g>
				<path class="st3" d="M53.4,164.2l251,0.2"/>
			</g>
			<g>
				<path class="st3" d="M53.4,169.2l251,0.2"/>
			</g>
			<g>
				<path class="st3" d="M53.4,174.2l251,0.2"/>
			</g>
			<g>
				<path class="st3" d="M53.4,179.2l251,0.2"/>
			</g>
			<g>
				<path class="st3" d="M53.4,184.2l251,0.2"/>
			</g>
			<g>
				<path class="st3" d="M53.4,189.2l251,0.2"/>
			</g>
			<g>
				<path class="st3" d="M53.4,194.2l251,0.2"/>
			</g>
			<g>
				<path class="st3" d="M53.4,199.2l251,0.2"/>
			</g>
			<g>
				<path class="st3" d="M53.4,204.2l251,0.2"/>
			</g>
			<g>
				<path class="st3" d="M53.4,209.2l251,0.2"/>
			</g>
			<g>
				<path class="st3" d="M53.4,214.2l251,0.2"/>
			</g>
			<g>
				<path class="st3" d="M53.4,219.2l251,0.2"/>
			</g>
			<g>
				<path class="st3" d="M53.4,224.2l251,0.2"/>
			</g>
			<g>
				<path class="st3" d="M53.4,229.2l251,0.2"/>
			</g>
			<g>
				<path class="st3" d="M53.4,234.2l251,0.2"/>
			</g>
			<g>
				<path class="st3" d="M53.4,239.2l251,0.2"/>
			</g>
			<g>
				<path class="st3" d="M53.4,244.2l251,0.2"/>
			</g>
			<g>
				<path class="st3" d="M53.4,249.2l251,0.2"/>
			</g>
			<g>
				<path class="st3" d="M53.4,254.2l251,0.2"/>
			</g>
			<g>
				<path class="st3" d="M53.4,259.2l251,0.2"/>
			</g>
			<g>
				<path class="st3" d="M53.4,264.2l251,0.2"/>
			</g>
			<g>
				<path class="st3" d="M53.4,269.2l251,0.2"/>
			</g>
			<g>
				<path class="st3" d="M53.4,274.2l251,0.2"/>
			</g>
			<g>
				<path class="st3" d="M53.4,279.2l251,0.2"/>
			</g>
			<g>
				<path class="st3" d="M53.4,284.2l251,0.2"/>
			</g>
			<g>
				<path class="st3" d="M53.4,289.2l251,0.2"/>
			</g>
			<g>
				<path class="st3" d="M53.4,294.2l251,0.2"/>
			</g>
			<g>
				<path class="st3" d="M53.4,299.2l251,0.2"/>
			</g>
			<g>
				<path class="st3" d="M53.4,304.2l251,0.2"/>
			</g>
			<g>
				<path class="st3" d="M53.4,309.2l251,0.2"/>
			</g>
			<g>
				<path class="st3" d="M53.4,314.2l251,0.2"/>
			</g>
			<g>
				<path class="st3" d="M53.4,319.2l251,0.2"/>
			</g>
			<g>
				<path class="st3" d="M53.4,324.2l251,0.2"/>
			</g>
			<g>
				<path class="st3" d="M53.4,329.2l251,0.2"/>
			</g>
			<g>
				<path class="st3" d="M53.4,334.2l251,0.2"/>
			</g>
			<g>
				<path class="st3" d="M53.4,339.2l251,0.2"/>
			</g>
			<g>
				<path class="st3" d="M53.4,344.2l251,0.2"/>
			</g>
			<g>
				<path class="st3" d="M53.4,349.2l251,0.2"/>
			</g>
			<g>
				<path class="st3" d="M53.4,354.2l251,0.2"/>
			</g>
			<g>
				<path class="st3" d="M53.4,359.2l251,0.2"/>
			</g>
			<g>
				<path class="st3" d="M53.4,364.2l251,0.2"/>
			</g>
			<g>
				<path class="st3" d="M53.4,369.2l251,0.2"/>
			</g>
			<g>
				<path class="st3" d="M53.4,374.2l251,0.2"/>
			</g>
			<g>
				<path class="st3" d="M53.4,379.2l251,0.2"/>
			</g>
			<g>
				<path class="st3" d="M53.4,384.2l251,0.2"/>
			</g>
			<g>
				<path class="st3" d="M53.4,389.2l251,0.2"/>
			</g>
			<g>
				<path class="st3" d="M53.4,394.2l251,0.2"/>
			</g>
			<g>
				<path class="st3" d="M53.4,399.2l251,0.2"/>
			</g>
			<g>
				<path class="st3" d="M53.4,404.2l251,0.2"/>
			</g>
			<g>
				<path class="st3" d="M53.4,409.2l251,0.2"/>
			</g>
			<g>
				<path class="st3" d="M53.4,414.2l251,0.2"/>
			</g>
			<g>
				<path class="st3" d="M53.4,419.2l251,0.2"/>
			</g>
			<g>
				<path class="st3" d="M53.4,424.2l251,0.2"/>
			</g>
			<g>
				<path class="st3" d="M53.4,429.2l251,0.2"/>
			</g>
			<g>
				<path class="st3" d="M53.4,434.2l251,0.2"/>
			</g>
		</g>
	</g>
</g>
<g>
	<g>
		<defs>
			<path id="SVGID_7_" d="M107.2,35.8c0,0-2.7-18.5,0-20.7c0,0,29.3-1.1,38,0s41.3-1.1,44-2.7s9.8-2.7,9.8,0s-0.5,18.5,0,23.4
				s5.4,122.3,0,148.9s9.2,57.6,9.2,57.6S324,398.3,265.8,420s-106.5-75.5-106.5-75.5s-24.5-52.2-31-57.6s-33.7-19.6-22.3-65.2
				S107.2,35.8,107.2,35.8z"/>
		</defs>
		<clipPath id="SVGID_8_">
			<use xlink:href="#SVGID_7_"  style="overflow:visible;"/>
		</clipPath>
		<g class="st7">
			<path class="st5" d="M136,65.1c-2.6-1.5-4.5-3.8-5.5-6.6c0.2-1.1,0.7-2.1,1.5-2.9c1.4-1.6,17.6-19.2,24.5-22.2
				c-1.8-0.3-3.6-0.5-5.4-0.5c-20.3,0-22.2,14.5-22.2,14.5s-12.3,3.8-12.3,15c0,16.1,19.8,16.9,19.8,16.9c2.1,0.1,4.2,0,6.3-0.2
				c1.1-0.2,2.1-1,2.6-2.1c1.2-2.9,2.9-7.5,4.6-12.3C143.1,65,136.7,65.3,136,65.1L136,65.1z M186,59c0-14.2-13.9-15.8-13.9-15.8
				c-1.5-2.6-3.6-4.8-6.2-6.4c-1.2,4.4-4.5,16.3-4.6,18.5h4.9c0,0,0.8,0,0.6,1c-0.5,2.2-1.7,7.5-4.3,7.7l-3.4,0.2c-1,3.9-2,8-2.7,11
				c2.5,1.8,5.6,2.8,8.7,2.6c3.6,0.2,7.1-1.1,9.7-3.6C186.4,72.2,186,59,186,59z"/>
			<path class="st5" d="M156.7,41.2c-5.2,4.5-10.1,9.5-14.5,14.9l10.5-0.4c2.1-6,4-11.4,4.8-13.7C157.5,41.5,157.1,41.2,156.7,41.2z
				 M100.2,135.8c-2.6-1.5-4.5-3.8-5.5-6.6c0.2-1.1,0.7-2.1,1.5-2.9c1.4-1.6,17.6-19.2,24.5-22.2c-1.8-0.3-3.6-0.5-5.4-0.5
				c-20.3,0-22.2,14.5-22.2,14.5s-12.3,3.8-12.3,15c0,16.1,19.8,16.9,19.8,16.9c2.1,0.1,4.2,0,6.3-0.2c1.1-0.2,2.1-1,2.6-2.1
				c1.2-2.9,2.9-7.5,4.6-12.3C107.3,135.6,100.9,135.9,100.2,135.8L100.2,135.8z M150.2,129.7c0-14.2-13.9-15.8-13.9-15.8
				c-1.5-2.6-3.6-4.8-6.2-6.4c-1.2,4.4-4.5,16.3-4.6,18.5h4.9c0,0,0.8,0,0.6,1c-0.5,2.2-1.7,7.5-4.3,7.7l-3.4,0.2c-1,3.9-2,8-2.7,11
				c2.5,1.8,5.6,2.8,8.7,2.6c3.6,0.2,7.1-1.1,9.7-3.6C150.6,142.9,150.2,129.7,150.2,129.7L150.2,129.7z"/>
			<path class="st5" d="M120.8,111.9c-5.2,4.5-10.1,9.5-14.5,14.9l10.5-0.4c2.1-6,4-11.4,4.8-13.7
				C121.6,112.2,121.3,111.9,120.8,111.9z M195.8,105.4c-2.6-1.5-4.5-3.8-5.5-6.6c0.2-1.1,0.7-2.1,1.5-2.9
				c1.4-1.6,17.6-19.2,24.5-22.2c-1.8-0.3-3.6-0.5-5.4-0.5c-20.3,0-22.2,14.5-22.2,14.5s-12.3,3.8-12.3,15
				c0,16.1,19.8,16.9,19.8,16.9c2.1,0.1,4.2,0,6.3-0.2c1.1-0.2,2.1-1,2.6-2.1c1.2-2.9,2.9-7.5,4.6-12.3
				C202.9,105.2,196.5,105.5,195.8,105.4L195.8,105.4z M245.8,99.2c0-14.2-13.9-15.8-13.9-15.8c-1.5-2.6-3.6-4.8-6.2-6.4
				c-1.2,4.4-4.5,16.3-4.6,18.5h4.9c0,0,0.8,0,0.6,1c-0.5,2.2-1.7,7.5-4.3,7.7l-3.4,0.2c-1,3.9-2,8-2.7,11c2.5,1.8,5.6,2.8,8.7,2.6
				c3.6,0.2,7.1-1.1,9.7-3.6C246.2,112.4,245.8,99.2,245.8,99.2L245.8,99.2z"/>
			<path class="st5" d="M216.5,81.4c-5.2,4.5-10.1,9.5-14.5,14.9l10.5-0.4c2.1-6,4-11.4,4.8-13.7C217.3,81.8,216.9,81.4,216.5,81.4z
				 M161.6,181.5c-2.6-1.5-4.5-3.8-5.5-6.6c0.2-1.1,0.7-2.1,1.5-2.9c1.4-1.6,17.6-19.2,24.5-22.2c-1.8-0.3-3.6-0.5-5.4-0.5
				c-20.3,0-22.2,14.5-22.2,14.5s-12.3,3.8-12.3,15c0,16.1,19.8,16.9,19.8,16.9c2.1,0.1,4.2,0,6.3-0.2c1.1-0.2,2.1-1,2.6-2.1
				c1.2-2.9,2.9-7.5,4.6-12.3C168.7,181.3,162.3,181.6,161.6,181.5L161.6,181.5z M211.6,175.3c0-14.2-13.9-15.8-13.9-15.8
				c-1.5-2.6-3.6-4.8-6.2-6.4c-1.2,4.4-4.5,16.3-4.6,18.5h4.9c0,0,0.8,0,0.6,1c-0.5,2.2-1.7,7.5-4.3,7.7l-3.4,0.2c-1,3.9-2,8-2.7,11
				c2.5,1.8,5.6,2.8,8.7,2.6c3.6,0.2,7.1-1.1,9.7-3.6C212,188.5,211.6,175.3,211.6,175.3z"/>
			<path class="st5" d="M182.3,157.5c-5.2,4.5-10.1,9.5-14.5,14.9l10.5-0.4c2.1-6,4-11.4,4.8-13.7
				C183,157.9,182.7,157.5,182.3,157.5z M90.9,233.1c-2.6-1.5-4.5-3.8-5.5-6.6c0.2-1.1,0.7-2.1,1.5-2.9c1.4-1.6,17.6-19.2,24.5-22.2
				c-1.8-0.3-3.6-0.5-5.4-0.5c-20.3,0-22.2,14.5-22.2,14.5s-12.3,3.8-12.3,15c0,16.1,19.8,16.9,19.8,16.9c2.1,0.1,4.2,0,6.3-0.2
				c1.1-0.2,2.1-1,2.6-2.1c1.2-2.9,2.9-7.5,4.6-12.3C98,232.9,91.6,233.2,90.9,233.1L90.9,233.1z M140.9,226.9
				c0-14.2-13.9-15.8-13.9-15.8c-1.5-2.6-3.6-4.8-6.2-6.4c-1.2,4.4-4.5,16.3-4.6,18.5h4.9c0,0,0.8,0,0.6,1c-0.5,2.2-1.7,7.5-4.3,7.7
				l-3.4,0.2c-1,3.9-2,8-2.7,11c2.5,1.8,5.6,2.8,8.7,2.6c3.6,0.2,7.1-1.1,9.7-3.6C141.3,240.2,140.9,226.9,140.9,226.9z"/>
			<path class="st5" d="M111.6,209.1c-5.2,4.5-10.1,9.5-14.5,14.9l10.5-0.4c2.1-6,4-11.4,4.8-13.7
				C112.4,209.5,112,209.2,111.6,209.1z M176.2,257.5c-2.6-1.5-4.5-3.8-5.5-6.6c0.2-1.1,0.7-2.1,1.5-2.9
				c1.4-1.6,17.6-19.2,24.5-22.2c-1.8-0.3-3.6-0.5-5.4-0.5c-20.3,0-22.2,14.5-22.2,14.5s-12.3,3.8-12.3,15
				c0,16.1,19.8,16.9,19.8,16.9c2.1,0.1,4.2,0,6.3-0.2c1.1-0.2,2.1-1,2.6-2.1c1.2-2.9,2.9-7.5,4.6-12.3
				C183.3,257.4,177,257.7,176.2,257.5L176.2,257.5z M226.2,251.4c0-14.2-13.9-15.8-13.9-15.8c-1.5-2.6-3.6-4.8-6.2-6.4
				c-1.2,4.4-4.5,16.3-4.6,18.5h4.9c0,0,0.8,0,0.6,1c-0.5,2.2-1.7,7.5-4.3,7.7l-3.4,0.2c-1,3.9-2,8-2.7,11c2.5,1.8,5.6,2.8,8.7,2.6
				c3.6,0.2,7.1-1.1,9.7-3.6C226.7,264.6,226.2,251.4,226.2,251.4L226.2,251.4z"/>
			<path class="st5" d="M196.9,233.6c-5.2,4.5-10.1,9.5-14.5,14.9l10.5-0.4c2.1-6,4-11.4,4.8-13.7
				C197.7,233.9,197.4,233.6,196.9,233.6z M161,328.2c-2.6-1.5-4.5-3.8-5.5-6.6c0.2-1.1,0.7-2.1,1.5-2.9
				c1.4-1.6,17.6-19.2,24.5-22.2c-1.8-0.3-3.6-0.5-5.4-0.5c-20.3,0-22.2,14.5-22.2,14.5s-12.3,3.8-12.3,15
				c0,16.1,19.8,16.9,19.8,16.9c2.1,0.1,4.2,0,6.3-0.2c1.1-0.2,2.1-1,2.6-2.1c1.2-2.9,2.9-7.5,4.6-12.3
				C168.1,328,161.7,328.3,161,328.2L161,328.2z M211,322.1c0-14.2-13.9-15.8-13.9-15.8c-1.5-2.6-3.6-4.8-6.2-6.4
				c-1.2,4.4-4.5,16.3-4.6,18.5h4.9c0,0,0.8,0,0.6,1c-0.5,2.2-1.7,7.5-4.3,7.7l-3.4,0.2c-1,3.9-2,8-2.7,11c2.5,1.8,5.6,2.8,8.7,2.6
				c3.6,0.2,7.1-1.1,9.7-3.6C211.4,335.3,211,322.1,211,322.1L211,322.1z"/>
			<path class="st5" d="M181.7,304.3c-5.2,4.5-10.1,9.5-14.5,14.9l10.5-0.4c2.1-6,4-11.4,4.8-13.7
				C182.5,304.6,182.1,304.3,181.7,304.3z M230.6,374.4c-2.6-1.5-4.5-3.8-5.5-6.6c0.2-1.1,0.7-2.1,1.5-2.9
				c1.4-1.6,17.6-19.2,24.5-22.2c-1.8-0.3-3.6-0.5-5.4-0.5c-20.3,0-22.2,14.5-22.2,14.5s-12.3,3.8-12.3,15
				c0,16.1,19.8,16.9,19.8,16.9c2.1,0.1,4.2,0,6.3-0.2c1.1-0.2,2.1-1,2.6-2.1c1.2-2.9,2.9-7.5,4.6-12.3
				C237.7,374.2,231.3,374.5,230.6,374.4L230.6,374.4z M280.6,368.3c0-14.2-13.9-15.8-13.9-15.8c-1.5-2.6-3.6-4.8-6.2-6.4
				c-1.2,4.4-4.5,16.3-4.6,18.5h4.9c0,0,0.8,0,0.6,1c-0.5,2.2-1.7,7.5-4.3,7.7l-3.4,0.2c-1,3.9-2,8-2.7,11c2.5,1.8,5.6,2.8,8.7,2.6
				c3.6,0.2,7.1-1.1,9.7-3.6C281,381.5,280.6,368.3,280.6,368.3L280.6,368.3z"/>
			<path class="st5" d="M251.3,350.5c-5.2,4.5-10.1,9.5-14.5,14.9l10.5-0.4c2.1-6,4-11.4,4.8-13.7
				C252,350.8,251.7,350.5,251.3,350.5z"/>
		</g>
	</g>
</g>
</svg>
