<svg xmlns="http://www.w3.org/2000/svg" xmlns:xlink="http://www.w3.org/1999/xlink" x="0px" y="0px" viewBox="0 0 500 500">
  <g id="socks">
    <g id="sock-1">
      <defs>
        <path id="sock-1-outline" d="M160 55.6s-2.7-18.5 0-20.7c0 0 29.3-1.1 38 0s41.3-1.1 44-2.7c2.7-1.6 9.8-2.7 9.8 0s-.5 18.5 0 23.4c.5 4.9 5.4 122.3 0 148.9-5.4 26.6 9.2 57.6 9.2 57.6s115.8 156 57.6 177.7c-58.2 21.7-106.5-75.5-106.5-75.5s-24.5-52.2-31-57.6c-6.5-5.4-33.7-19.6-22.3-65.2S160 55.6 160 55.6z"/>
      </defs>
      <clipPath id="sock-1-clip">
        <use xlink:href="#sock-1-outline" overflow="visible"/>
      </clipPath>
      <path d="M150.2 60.5s-2.7-18.5 0-20.7c0 0 .3-.3 9.5-4.6 6-2.8 25.2 4.2 28.5 4.6 8.7 1.1 41.3-1.1 44-2.7 2.7-1.6 9.8-2.7 9.8 0s-.5 18.5 0 23.4c.5 4.9 5.4 122.3 0 148.9s9.2 57.6 9.2 57.6 85.7 118.1 76.9 166c0 0-10.1 8.2-19.3 11.7-58.2 21.7-106.5-75.5-106.5-75.5s-24.5-52.2-31-57.6-33.7-19.6-22.3-65.2 1.2-185.9 1.2-185.9z" opacity="0.3"/>
      <path d="M160 55.6s-2.7-18.5 0-20.7c0 0 29.3-1.1 38 0s41.3-1.1 44-2.7c2.7-1.6 9.8-2.7 9.8 0s-.5 18.5 0 23.4c.5 4.9 5.4 122.3 0 148.9-5.4 26.6 9.2 57.6 9.2 57.6s115.8 156 57.6 177.7c-58.2 21.7-106.5-75.5-106.5-75.5s-24.5-52.2-31-57.6c-6.5-5.4-33.7-19.6-22.3-65.2S160 55.6 160 55.6z" fill="var(--illustration-color)"/>
      <g style="clip-path:url(#sock-1-clip)">
        <path style="fill:none;stroke:#FFFFFF;stroke-width:0.5;stroke-miterlimit:10;stroke-dasharray:1.8,1.8;opacity:0.25" d="M106.2 37.2h251M106.2 44.4h251M106.2 51.6h251M106.2 58.8h251M106.2 66h251M106.2 73.2h251M106.2 80.4h251M106.2 87.6h251M106.2 94.8h251M106.2 242.4h251M106.2 102h251M106.2 109.2h251M106.2 116.4h251M106.2 123.6h251M106.2 130.8h251M106.2 138h251M106.2 145.2h251M106.2 152.4h251M106.2 159.6h251M106.2 166.8h251M106.2 174h251M106.2 181.2h251M106.2 188.4h251M106.2 195.6h251M106.2 202.8h251M106.2 210h251M106.2 217.2h251M106.2 228h251M106.2 33.6h251M106.2 256.8h251M106.2 40.8h251M106.2 48h251M106.2 55.2h251M106.2 62.4h251M106.2 69.6h251M106.2 76.8h251M106.2 84h251M106.2 91.2h251M106.2 98.4h251M106.2 249.6h251M106.2 105.6h251M106.2 112.8h251M106.2 120h251M106.2 127.2h251M106.2 134.4h251M106.2 141.6h251M106.2 148.8h251M106.2 156h251M106.2 163.2h251M106.2 170.4h251M106.2 177.6h251M106.2 184.8h251M106.2 192h251M106.2 199.2h251M106.2 206.4h251M106.2 213.6h251M106.2 220.8h251M106.2 235.2h251M106.2 30h251M106.2 264h251M106.2 238.8h251M106.2 253.2h251M106.2 267.6h251M106.2 274.8h251M106.2 282h251M106.2 289.2h251M106.2 296.4h251M106.2 303.6h251M106.2 310.8h251M106.2 447.5h251M106.2 318h251M106.2 325.2h251M106.2 332.4h251M106.2 339.6h251M106.2 346.8h251M106.2 353.9h251M106.2 361.1h251M106.2 368.3h251M106.2 375.5h251M106.2 382.7h251M106.2 389.9h251M106.2 397.1h251M106.2 404.3h251M106.2 411.5h251M106.2 418.7h251M106.2 425.9h251M106.2 433.1h251M106.2 440.3h251M106.2 231.6h251M106.2 454.7h251M106.2 246h251M106.2 260.4h251M106.2 271.2h251M106.2 278.4h251M106.2 285.6h251M106.2 292.8h251M106.2 300h251M106.2 307.2h251M106.2 314.4h251M106.2 451.1h251M106.2 321.6h251M106.2 328.8h251M106.2 336h251M106.2 343.2h251M106.2 350.4h251M106.2 357.5h251M106.2 364.7h251M106.2 371.9h251M106.2 379.1h251M106.2 386.3h251M106.2 393.5h251M106.2 400.7h251M106.2 407.9h251M106.2 415.1h251M106.2 422.3h251M106.2 429.5h251M106.2 436.7h251M106.2 443.9h251M106.2 224.4h251M106.2 458.3h251"/>
      </g>
      <g style="clip-path:url(#sock-1-clip)">
        <path style="fill:#FFFFFF;opacity:0.95" d="M188.8 84.9c-2.6-1.5-4.5-3.8-5.5-6.6.2-1.1.7-2.1 1.5-2.9 1.4-1.6 17.6-19.2 24.5-22.2-1.8-.3-3.6-.5-5.4-.5-20.3 0-22.2 14.5-22.2 14.5s-12.3 3.8-12.3 15c0 16.1 19.8 16.9 19.8 16.9 2.1.1 4.2 0 6.3-.2 1.1-.2 2.1-1 2.6-2.1 1.2-2.9 2.9-7.5 4.6-12.3-6.8.3-13.2.6-13.9.4zM238.8 78.8c0-14.2-13.9-15.8-13.9-15.8-1.5-2.6-3.6-4.8-6.2-6.4-1.2 4.4-4.5 16.3-4.6 18.5h4.9s.8 0 .6 1c-.5 2.2-1.7 7.5-4.3 7.7l-3.4.2c-1 3.9-2 8-2.7 11 2.5 1.8 5.6 2.8 8.7 2.6 3.6.2 7.1-1.1 9.7-3.6 11.6-2 11.2-15.2 11.2-15.2z"/>
        <path style="fill:#FFFFFF;opacity:0.95" d="M209.5 61c-5.2 4.5-10.1 9.5-14.5 14.9l10.5-.4c2.1-6 4-11.4 4.8-13.7 0-.5-.4-.8-.8-.8zM153 155.6c-2.6-1.5-4.5-3.8-5.5-6.6.2-1.1.7-2.1 1.5-2.9 1.4-1.6 17.6-19.2 24.5-22.2-1.8-.3-3.6-.5-5.4-.5-20.3 0-22.2 14.5-22.2 14.5s-12.3 3.8-12.3 15c0 16.1 19.8 16.9 19.8 16.9 2.1.1 4.2 0 6.3-.2 1.1-.2 2.1-1 2.6-2.1 1.2-2.9 2.9-7.5 4.6-12.3-6.8.2-13.2.5-13.9.4zM203 149.5c0-14.2-13.9-15.8-13.9-15.8-1.5-2.6-3.6-4.8-6.2-6.4-1.2 4.4-4.5 16.3-4.6 18.5h4.9s.8 0 .6 1c-.5 2.2-1.7 7.5-4.3 7.7l-3.4.2c-1 3.9-2 8-2.7 11 2.5 1.8 5.6 2.8 8.7 2.6 3.6.2 7.1-1.1 9.7-3.6 11.6-2 11.2-15.2 11.2-15.2z"/>
        <path style="fill:#FFFFFF;opacity:0.95" d="M173.6 131.7c-5.2 4.5-10.1 9.5-14.5 14.9l10.5-.4c2.1-6 4-11.4 4.8-13.7 0-.5-.3-.8-.8-.8zM248.6 125.2c-2.6-1.5-4.5-3.8-5.5-6.6.2-1.1.7-2.1 1.5-2.9 1.4-1.6 17.6-19.2 24.5-22.2-1.8-.3-3.6-.5-5.4-.5-20.3 0-22.2 14.5-22.2 14.5s-12.3 3.8-12.3 15c0 16.1 19.8 16.9 19.8 16.9 2.1.1 4.2 0 6.3-.2 1.1-.2 2.1-1 2.6-2.1 1.2-2.9 2.9-7.5 4.6-12.3-6.8.2-13.2.5-13.9.4zM298.6 119c0-14.2-13.9-15.8-13.9-15.8-1.5-2.6-3.6-4.8-6.2-6.4-1.2 4.4-4.5 16.3-4.6 18.5h4.9s.8 0 .6 1c-.5 2.2-1.7 7.5-4.3 7.7l-3.4.2c-1 3.9-2 8-2.7 11 2.5 1.8 5.6 2.8 8.7 2.6 3.6.2 7.1-1.1 9.7-3.6 11.6-2 11.2-15.2 11.2-15.2z"/>
        <path style="fill:#FFFFFF;opacity:0.95" d="M269.3 101.2c-5.2 4.5-10.1 9.5-14.5 14.9l10.5-.4c2.1-6 4-11.4 4.8-13.7 0-.4-.4-.8-.8-.8zM214.4 201.3c-2.6-1.5-4.5-3.8-5.5-6.6.2-1.1.7-2.1 1.5-2.9 1.4-1.6 17.6-19.2 24.5-22.2-1.8-.3-3.6-.5-5.4-.5-20.3 0-22.2 14.5-22.2 14.5s-12.3 3.8-12.3 15c0 16.1 19.8 16.9 19.8 16.9 2.1.1 4.2 0 6.3-.2 1.1-.2 2.1-1 2.6-2.1 1.2-2.9 2.9-7.5 4.6-12.3-6.8.2-13.2.5-13.9.4zM264.4 195.1c0-14.2-13.9-15.8-13.9-15.8-1.5-2.6-3.6-4.8-6.2-6.4-1.2 4.4-4.5 16.3-4.6 18.5h4.9s.8 0 .6 1c-.5 2.2-1.7 7.5-4.3 7.7l-3.4.2c-1 3.9-2 8-2.7 11 2.5 1.8 5.6 2.8 8.7 2.6 3.6.2 7.1-1.1 9.7-3.6 11.6-2 11.2-15.2 11.2-15.2z"/>
        <path style="fill:#FFFFFF;opacity:0.95" d="M235.1 177.3c-5.2 4.5-10.1 9.5-14.5 14.9l10.5-.4c2.1-6 4-11.4 4.8-13.7-.1-.4-.4-.8-.8-.8zM143.7 252.9c-2.6-1.5-4.5-3.8-5.5-6.6.2-1.1.7-2.1 1.5-2.9 1.4-1.6 17.6-19.2 24.5-22.2-1.8-.3-3.6-.5-5.4-.5-20.3 0-22.2 14.5-22.2 14.5s-12.3 3.8-12.3 15c0 16.1 19.8 16.9 19.8 16.9 2.1.1 4.2 0 6.3-.2 1.1-.2 2.1-1 2.6-2.1 1.2-2.9 2.9-7.5 4.6-12.3-6.8.2-13.2.5-13.9.4zM193.7 246.7c0-14.2-13.9-15.8-13.9-15.8-1.5-2.6-3.6-4.8-6.2-6.4-1.2 4.4-4.5 16.3-4.6 18.5h4.9s.8 0 .6 1c-.5 2.2-1.7 7.5-4.3 7.7l-3.4.2c-1 3.9-2 8-2.7 11 2.5 1.8 5.6 2.8 8.7 2.6 3.6.2 7.1-1.1 9.7-3.6 11.6-1.9 11.2-15.2 11.2-15.2z"/>
        <path style="fill:#FFFFFF;opacity:0.95" d="M164.4 228.9c-5.2 4.5-10.1 9.5-14.5 14.9l10.5-.4c2.1-6 4-11.4 4.8-13.7 0-.4-.4-.7-.8-.8zM229 277.3c-2.6-1.5-4.5-3.8-5.5-6.6.2-1.1.7-2.1 1.5-2.9 1.4-1.6 17.6-19.2 24.5-22.2-1.8-.3-3.6-.5-5.4-.5-20.3 0-22.2 14.5-22.2 14.5s-12.3 3.8-12.3 15c0 16.1 19.8 16.9 19.8 16.9 2.1.1 4.2 0 6.3-.2 1.1-.2 2.1-1 2.6-2.1 1.2-2.9 2.9-7.5 4.6-12.3-6.8.3-13.1.6-13.9.4zM279 271.2c0-14.2-13.9-15.8-13.9-15.8-1.5-2.6-3.6-4.8-6.2-6.4-1.2 4.4-4.5 16.3-4.6 18.5h4.9s.8 0 .6 1c-.5 2.2-1.7 7.5-4.3 7.7l-3.4.2c-1 3.9-2 8-2.7 11 2.5 1.8 5.6 2.8 8.7 2.6 3.6.2 7.1-1.1 9.7-3.6 11.7-2 11.2-15.2 11.2-15.2z"/>
        <path style="fill:#FFFFFF;opacity:0.95" d="M249.7 253.4c-5.2 4.5-10.1 9.5-14.5 14.9l10.5-.4c2.1-6 4-11.4 4.8-13.7 0-.5-.3-.8-.8-.8zM213.8 348c-2.6-1.5-4.5-3.8-5.5-6.6.2-1.1.7-2.1 1.5-2.9 1.4-1.6 17.6-19.2 24.5-22.2-1.8-.3-3.6-.5-5.4-.5-20.3 0-22.2 14.5-22.2 14.5s-12.3 3.8-12.3 15c0 16.1 19.8 16.9 19.8 16.9 2.1.1 4.2 0 6.3-.2 1.1-.2 2.1-1 2.6-2.1 1.2-2.9 2.9-7.5 4.6-12.3-6.8.2-13.2.5-13.9.4zM263.8 341.9c0-14.2-13.9-15.8-13.9-15.8-1.5-2.6-3.6-4.8-6.2-6.4-1.2 4.4-4.5 16.3-4.6 18.5h4.9s.8 0 .6 1c-.5 2.2-1.7 7.5-4.3 7.7l-3.4.2c-1 3.9-2 8-2.7 11 2.5 1.8 5.6 2.8 8.7 2.6 3.6.2 7.1-1.1 9.7-3.6 11.6-2 11.2-15.2 11.2-15.2z"/>
        <path style="fill:#FFFFFF;opacity:0.95" d="M234.5 324.1c-5.2 4.5-10.1 9.5-14.5 14.9l10.5-.4c2.1-6 4-11.4 4.8-13.7 0-.5-.4-.8-.8-.8zM283.4 394.2c-2.6-1.5-4.5-3.8-5.5-6.6.2-1.1.7-2.1 1.5-2.9 1.4-1.6 17.6-19.2 24.5-22.2-1.8-.3-3.6-.5-5.4-.5-20.3 0-22.2 14.5-22.2 14.5s-12.3 3.8-12.3 15c0 16.1 19.8 16.9 19.8 16.9 2.1.1 4.2 0 6.3-.2 1.1-.2 2.1-1 2.6-2.1 1.2-2.9 2.9-7.5 4.6-12.3-6.8.2-13.2.5-13.9.4zM333.4 388.1c0-14.2-13.9-15.8-13.9-15.8-1.5-2.6-3.6-4.8-6.2-6.4-1.2 4.4-4.5 16.3-4.6 18.5h4.9s.8 0 .6 1c-.5 2.2-1.7 7.5-4.3 7.7l-3.4.2c-1 3.9-2 8-2.7 11 2.5 1.8 5.6 2.8 8.7 2.6 3.6.2 7.1-1.1 9.7-3.6 11.6-2 11.2-15.2 11.2-15.2z"/>
        <path style="fill:#FFFFFF;opacity:0.95" d="M304.1 370.3c-5.2 4.5-10.1 9.5-14.5 14.9l10.5-.4c2.1-6 4-11.4 4.8-13.7-.1-.5-.4-.8-.8-.8z"/>
      </g>
    </g>
    <use xlink:href="#sock-1" x="45" y="2"/>
  </g>
</svg>
